<svg id="visual" viewBox="0 0 675 900" width="675" height="900" xmlns="http://www.w3.org/2000/svg" xmlns:xlink="http://www.w3.org/1999/xlink" version="1.1"><rect x="0" y="0" width="675" height="900" fill="#ffffff"></rect><path d="M0 630L16 631.2C32 632.3 64 634.7 96.2 638.7C128.3 642.7 160.7 648.3 192.8 633.8C225 619.3 257 584.7 289.2 578C321.3 571.3 353.7 592.7 385.8 595.5C418 598.3 450 582.7 482.2 574.7C514.3 566.7 546.7 566.3 578.8 563.2C611 560 643 554 659 551L675 548L675 901L659 901C643 901 611 901 578.8 901C546.7 901 514.3 901 482.2 901C450 901 418 901 385.8 901C353.7 901 321.3 901 289.2 901C257 901 225 901 192.8 901C160.7 901 128.3 901 96.2 901C64 901 32 901 16 901L0 901Z" fill="#a255f3"></path><path d="M0 605L16 613.7C32 622.3 64 639.7 96.2 641.5C128.3 643.3 160.7 629.7 192.8 623.3C225 617 257 618 289.2 620.7C321.3 623.3 353.7 627.7 385.8 640.3C418 653 450 674 482.2 669.3C514.3 664.7 546.7 634.3 578.8 618.3C611 602.3 643 600.7 659 599.8L675 599L675 901L659 901C643 901 611 901 578.8 901C546.7 901 514.3 901 482.2 901C450 901 418 901 385.8 901C353.7 901 321.3 901 289.2 901C257 901 225 901 192.8 901C160.7 901 128.3 901 96.2 901C64 901 32 901 16 901L0 901Z" fill="#8569f9"></path><path d="M0 758L16 754.5C32 751 64 744 96.2 737.2C128.3 730.3 160.7 723.7 192.8 717.3C225 711 257 705 289.2 696.5C321.3 688 353.7 677 385.8 678C418 679 450 692 482.2 692.7C514.3 693.3 546.7 681.7 578.8 686.7C611 691.7 643 713.3 659 724.2L675 735L675 901L659 901C643 901 611 901 578.8 901C546.7 901 514.3 901 482.2 901C450 901 418 901 385.8 901C353.7 901 321.3 901 289.2 901C257 901 225 901 192.8 901C160.7 901 128.3 901 96.2 901C64 901 32 901 16 901L0 901Z" fill="#6878f9"></path><path d="M0 727L16 727.5C32 728 64 729 96.2 729C128.3 729 160.7 728 192.8 726.5C225 725 257 723 289.2 722.2C321.3 721.3 353.7 721.7 385.8 721.7C418 721.7 450 721.3 482.2 727.8C514.3 734.3 546.7 747.7 578.8 759C611 770.3 643 779.7 659 784.3L675 789L675 901L659 901C643 901 611 901 578.8 901C546.7 901 514.3 901 482.2 901C450 901 418 901 385.8 901C353.7 901 321.3 901 289.2 901C257 901 225 901 192.8 901C160.7 901 128.3 901 96.2 901C64 901 32 901 16 901L0 901Z" fill="#4e84f5"></path><path d="M0 844L16 843.5C32 843 64 842 96.2 836C128.3 830 160.7 819 192.8 818C225 817 257 826 289.2 833.8C321.3 841.7 353.7 848.3 385.8 851C418 853.7 450 852.3 482.2 841.7C514.3 831 546.7 811 578.8 809.8C611 808.7 643 826.3 659 835.2L675 844L675 901L659 901C643 901 611 901 578.8 901C546.7 901 514.3 901 482.2 901C450 901 418 901 385.8 901C353.7 901 321.3 901 289.2 901C257 901 225 901 192.8 901C160.7 901 128.3 901 96.2 901C64 901 32 901 16 901L0 901Z" fill="#3d8dee"></path></svg>