<svg width="675" height="900" viewBox="0 0 675 900" fill="none" xmlns="http://www.w3.org/2000/svg">
<g clip-path="url(#clip0_937_2)">
<path d="M675 0H0V900H675V0Z" fill="white"/>
<path d="M0 630L16 631.2C32 632.3 64 634.7 96.2 638.7C128.3 642.7 160.7 648.3 192.8 633.8C225 619.3 257 584.7 289.2 578C321.3 571.3 353.7 592.7 385.8 595.5C418 598.3 450 582.7 482.2 574.7C514.3 566.7 546.7 566.3 578.8 563.2C611 560 643 554 659 551L675 548V901H659C643 901 611 901 578.8 901C546.7 901 514.3 901 482.2 901C450 901 418 901 385.8 901C353.7 901 321.3 901 289.2 901C257 901 225 901 192.8 901C160.7 901 128.3 901 96.2 901C64 901 32 901 16 901H0V630Z" fill="#A255F3"/>
<path d="M0 605L16 613.7C32 622.3 64 639.7 96.2 641.5C128.3 643.3 160.7 629.7 192.8 623.3C225 617 257 618 289.2 620.7C321.3 623.3 353.7 627.7 385.8 640.3C418 653 450 674 482.2 669.3C514.3 664.7 546.7 634.3 578.8 618.3C611 602.3 643 600.7 659 599.8L675 599V901H659C643 901 611 901 578.8 901C546.7 901 514.3 901 482.2 901C450 901 418 901 385.8 901C353.7 901 321.3 901 289.2 901C257 901 225 901 192.8 901C160.7 901 128.3 901 96.2 901C64 901 32 901 16 901H0V605Z" fill="#8569F9"/>
<path d="M0 758.001L16 754.501C32 751.001 64 744.001 96.2 737.201C128.3 730.301 160.7 723.701 192.8 717.301C225 711.001 257 705.001 289.2 696.501C321.3 688.001 353.7 677.001 385.8 678.001C418 679.001 450 692.001 482.2 692.701C514.3 693.301 546.7 681.701 578.8 686.701C611 691.701 643 713.301 659 724.201L675 735.001V901.001H659C643 901.001 611 901.001 578.8 901.001C546.7 901.001 514.3 901.001 482.2 901.001C450 901.001 418 901.001 385.8 901.001C353.7 901.001 321.3 901.001 289.2 901.001C257 901.001 225 901.001 192.8 901.001C160.7 901.001 128.3 901.001 96.2 901.001C64 901.001 32 901.001 16 901.001H0V758.001Z" fill="#6878F9"/>
<path d="M0 726.998L16 727.498C32 727.998 64 728.998 96.2 728.998C128.3 728.998 160.7 727.998 192.8 726.498C225 724.998 257 722.998 289.2 722.198C321.3 721.298 353.7 721.698 385.8 721.698C418 721.698 450 721.298 482.2 727.798C514.3 734.298 546.7 747.698 578.8 758.998C611 770.298 643 779.698 659 784.298L675 788.998V900.998H659C643 900.998 611 900.998 578.8 900.998C546.7 900.998 514.3 900.998 482.2 900.998C450 900.998 418 900.998 385.8 900.998C353.7 900.998 321.3 900.998 289.2 900.998C257 900.998 225 900.998 192.8 900.998C160.7 900.998 128.3 900.998 96.2 900.998C64 900.998 32 900.998 16 900.998H0V726.998Z" fill="#4E84F5"/>
<path d="M0 843.999L16 843.499C32 842.999 64 841.999 96.2 835.999C128.3 829.999 160.7 818.999 192.8 817.999C225 816.999 257 825.999 289.2 833.799C321.3 841.699 353.7 848.299 385.8 850.999C418 853.699 450 852.299 482.2 841.699C514.3 830.999 546.7 810.999 578.8 809.799C611 808.699 643 826.299 659 835.199L675 843.999V900.999H659C643 900.999 611 900.999 578.8 900.999C546.7 900.999 514.3 900.999 482.2 900.999C450 900.999 418 900.999 385.8 900.999C353.7 900.999 321.3 900.999 289.2 900.999C257 900.999 225 900.999 192.8 900.999C160.7 900.999 128.3 900.999 96.2 900.999C64 900.999 32 900.999 16 900.999H0V843.999Z" fill="#3D8DEE"/>
<path d="M70.8 271.36L79.92 293.68L88.992 271.36H95.28V304H89.76V291.52L90.48 280.096L82.368 300.16H77.232L69.312 280.048L70.032 291.52V304H64.512V271.36H70.8ZM122.069 302.608C120.405 303.28 118.837 303.76 117.365 304.048C115.893 304.336 114.501 304.48 113.189 304.48C109.573 304.48 106.837 303.456 104.981 301.408C103.125 299.36 102.197 296.64 102.197 293.248V290.368C102.197 288.096 102.613 286.128 103.445 284.464C104.277 282.8 105.461 281.504 106.997 280.576C108.533 279.648 110.341 279.184 112.421 279.184C114.117 279.184 115.701 279.536 117.173 280.24C118.677 280.912 119.893 281.984 120.821 283.456C121.781 284.896 122.261 286.752 122.261 289.024C122.261 289.696 122.213 290.416 122.117 291.184C122.021 291.92 121.861 292.704 121.637 293.536H107.525C107.589 295.52 108.085 297.008 109.013 298C109.941 298.992 111.429 299.488 113.477 299.488C114.565 299.488 115.685 299.36 116.837 299.104C118.021 298.848 119.237 298.464 120.485 297.952L122.069 302.608ZM112.421 283.84C110.949 283.84 109.797 284.32 108.965 285.28C108.165 286.208 107.701 287.552 107.573 289.312H116.789C116.821 289.152 116.837 289.008 116.837 288.88C116.837 288.72 116.837 288.576 116.837 288.448C116.837 286.912 116.405 285.76 115.541 284.992C114.677 284.224 113.637 283.84 112.421 283.84ZM142.348 284.704C140.844 284.704 139.404 284.944 138.028 285.424C136.684 285.872 135.388 286.608 134.14 287.632V304H128.62V279.664H133.852V283.408C135.484 281.872 136.94 280.784 138.22 280.144C139.5 279.504 140.876 279.184 142.348 279.184V284.704ZM151.407 290.416V293.248C151.407 295.296 151.775 296.832 152.511 297.856C153.247 298.88 154.431 299.392 156.063 299.392C156.863 299.392 157.759 299.296 158.751 299.104C159.775 298.88 160.879 298.544 162.063 298.096L163.647 302.752C162.207 303.328 160.847 303.76 159.567 304.048C158.287 304.336 157.023 304.48 155.775 304.48C152.575 304.48 150.127 303.456 148.431 301.408C146.735 299.36 145.887 296.64 145.887 293.248V290.416C145.887 286.992 146.735 284.272 148.431 282.256C150.127 280.208 152.575 279.184 155.775 279.184C156.991 279.184 158.223 279.328 159.471 279.616C160.719 279.904 162.031 280.32 163.407 280.864L161.823 285.616C159.519 284.72 157.599 284.272 156.063 284.272C154.431 284.272 153.247 284.784 152.511 285.808C151.775 286.8 151.407 288.336 151.407 290.416ZM183.194 304V300.784C181.722 302.064 180.346 303.008 179.066 303.616C177.786 304.192 176.49 304.48 175.178 304.48C173.002 304.48 171.322 303.744 170.138 302.272C168.954 300.768 168.362 298.672 168.362 295.984V279.664H173.882V295.312C173.882 298 174.874 299.344 176.858 299.344C177.658 299.344 178.522 299.152 179.45 298.768C180.41 298.384 181.562 297.648 182.906 296.56V279.664H188.426V304H183.194ZM209.754 284.704C208.25 284.704 206.81 284.944 205.434 285.424C204.09 285.872 202.794 286.608 201.546 287.632V304H196.026V279.664H201.258V283.408C202.89 281.872 204.346 280.784 205.626 280.144C206.906 279.504 208.282 279.184 209.754 279.184V284.704ZM224.429 306.4C223.373 309.344 222.029 311.456 220.397 312.736C218.765 314.048 216.525 314.704 213.677 314.704V309.184C215.373 309.12 216.701 308.736 217.661 308.032C218.653 307.36 219.389 306.416 219.869 305.2L220.301 304.096L211.613 279.664H217.085L221.261 291.808L222.893 296.944L224.477 291.808L228.461 279.664H233.933L224.429 306.4ZM255.975 299.152C259.687 299.152 261.543 297.776 261.543 295.024C261.543 293.904 261.255 293.024 260.679 292.384C260.135 291.744 259.111 291.184 257.607 290.704L253.671 289.408C248.967 287.872 246.615 284.784 246.615 280.144C246.615 277.456 247.447 275.248 249.111 273.52C250.807 271.76 253.447 270.88 257.031 270.88C258.535 270.88 260.023 271.056 261.495 271.408C262.967 271.728 264.535 272.256 266.199 272.992L264.423 277.936C262.887 277.328 261.575 276.896 260.487 276.64C259.431 276.352 258.343 276.208 257.223 276.208C255.751 276.208 254.583 276.48 253.719 277.024C252.887 277.536 252.471 278.48 252.471 279.856C252.471 280.88 252.759 281.728 253.335 282.4C253.943 283.04 254.935 283.584 256.311 284.032L260.247 285.328C262.615 286.128 264.391 287.296 265.575 288.832C266.791 290.336 267.399 292.336 267.399 294.832C267.399 297.712 266.487 300.048 264.663 301.84C262.839 303.6 259.975 304.48 256.071 304.48C254.535 304.48 252.935 304.304 251.271 303.952C249.639 303.568 247.847 302.928 245.895 302.032L247.671 297.088C249.463 297.856 250.983 298.4 252.231 298.72C253.511 299.008 254.759 299.152 255.975 299.152ZM287.635 303.184C286.803 303.568 285.843 303.872 284.755 304.096C283.667 304.352 282.563 304.48 281.443 304.48C279.587 304.48 278.099 304.096 276.979 303.328C275.859 302.56 275.043 301.488 274.531 300.112C274.051 298.736 273.811 297.168 273.811 295.408V284.464H269.875V279.664H273.811V273.328H279.331V279.664H286.915V284.464H279.331V295.408C279.331 296.88 279.603 297.904 280.147 298.48C280.723 299.024 281.539 299.296 282.595 299.296C283.107 299.296 283.651 299.248 284.227 299.152C284.835 299.024 285.507 298.816 286.243 298.528L287.635 303.184ZM311.993 290.368V293.248C311.993 296.64 311.065 299.36 309.209 301.408C307.353 303.456 304.729 304.48 301.337 304.48C297.945 304.48 295.321 303.456 293.465 301.408C291.609 299.36 290.681 296.64 290.681 293.248V290.368C290.681 286.976 291.593 284.272 293.417 282.256C295.273 280.208 297.913 279.184 301.337 279.184C304.761 279.184 307.385 280.208 309.209 282.256C311.065 284.272 311.993 286.976 311.993 290.368ZM306.329 290.368C306.329 288.416 305.897 286.896 305.033 285.808C304.169 284.688 302.937 284.128 301.337 284.128C299.737 284.128 298.505 284.688 297.641 285.808C296.777 286.896 296.345 288.416 296.345 290.368V293.248C296.345 295.2 296.777 296.736 297.641 297.856C298.505 298.976 299.737 299.536 301.337 299.536C302.937 299.536 304.169 298.976 305.033 297.856C305.897 296.736 306.329 295.2 306.329 293.248V290.368ZM331.911 284.704C330.407 284.704 328.967 284.944 327.591 285.424C326.247 285.872 324.951 286.608 323.703 287.632V304H318.183V279.664H323.415V283.408C325.047 281.872 326.503 280.784 327.783 280.144C329.063 279.504 330.439 279.184 331.911 279.184V284.704ZM355.177 304.24C353.545 304.24 352.233 303.904 351.241 303.232C350.281 302.56 349.577 301.728 349.129 300.736C347.753 302.016 346.425 302.96 345.145 303.568C343.865 304.176 342.489 304.48 341.017 304.48C338.873 304.48 337.289 303.792 336.265 302.416C335.273 301.04 334.777 299.296 334.777 297.184C334.777 295.776 335.033 294.544 335.545 293.488C336.089 292.4 336.969 291.552 338.185 290.944C339.401 290.336 341.065 290.032 343.177 290.032C344.009 290.032 344.873 290.096 345.769 290.224C346.665 290.32 347.561 290.448 348.457 290.608V287.776C348.457 286.432 348.089 285.52 347.353 285.04C346.617 284.528 345.625 284.272 344.377 284.272C343.417 284.272 342.361 284.4 341.209 284.656C340.089 284.912 338.873 285.312 337.561 285.856L335.977 281.152C339.209 279.84 342.137 279.184 344.761 279.184C347.129 279.184 348.953 279.584 350.233 280.384C351.545 281.184 352.457 282.24 352.969 283.552C353.481 284.864 353.737 286.272 353.737 287.776V297.136C353.737 297.616 353.865 298.08 354.121 298.528C354.409 298.944 354.953 299.152 355.753 299.152H356.281V304.24H355.177ZM340.105 297.088C340.105 297.952 340.297 298.64 340.681 299.152C341.065 299.632 341.625 299.872 342.361 299.872C343.097 299.872 343.929 299.68 344.857 299.296C345.785 298.912 346.985 298.016 348.457 296.608V294.544C346.793 294.256 345.161 294.112 343.561 294.112C342.313 294.112 341.417 294.368 340.873 294.88C340.361 295.392 340.105 296.128 340.105 297.088ZM381.281 306.448C381.281 309.04 380.257 311.056 378.209 312.496C376.193 313.968 373.377 314.704 369.761 314.704C368.065 314.704 366.273 314.512 364.385 314.128C362.497 313.744 360.753 313.104 359.153 312.208L360.737 307.84C362.273 308.608 363.793 309.152 365.297 309.472C366.801 309.824 368.273 310 369.713 310C371.729 310 373.265 309.728 374.321 309.184C375.377 308.64 375.905 307.92 375.905 307.024C375.905 305.648 375.089 304.96 373.457 304.96H367.697C366.129 304.96 364.865 304.704 363.905 304.192C362.945 303.68 362.241 303.024 361.793 302.224C361.345 301.392 361.121 300.528 361.121 299.632C361.121 298.704 361.313 297.84 361.697 297.04C362.113 296.208 362.673 295.44 363.377 294.736C362.225 294.032 361.297 293.088 360.593 291.904C359.921 290.72 359.585 289.296 359.585 287.632C359.585 285.744 359.985 284.176 360.785 282.928C361.585 281.68 362.673 280.752 364.049 280.144C365.457 279.504 367.009 279.184 368.705 279.184H369.521C370.161 279.184 370.785 279.232 371.393 279.328C372.001 279.392 372.577 279.504 373.121 279.664H381.809V284.368L377.009 283.6C377.489 284.112 377.857 284.752 378.113 285.52C378.401 286.256 378.545 287.168 378.545 288.256C378.545 289.888 378.129 291.296 377.297 292.48C376.497 293.632 375.409 294.528 374.033 295.168C372.689 295.776 371.185 296.08 369.521 296.08H368.705C368.065 296.08 367.457 296.032 366.881 295.936C366.529 296.32 366.273 296.72 366.113 297.136C365.953 297.52 365.873 297.888 365.873 298.24C365.873 299.36 366.593 299.92 368.033 299.92H373.889C376.097 299.92 377.873 300.496 379.217 301.648C380.593 302.768 381.281 304.368 381.281 306.448ZM369.521 291.568C370.513 291.568 371.377 291.232 372.113 290.56C372.881 289.888 373.265 288.912 373.265 287.632C373.265 286.352 372.881 285.376 372.113 284.704C371.377 284.032 370.513 283.696 369.521 283.696H368.705C367.681 283.696 366.785 284.032 366.017 284.704C365.281 285.376 364.913 286.352 364.913 287.632C364.913 288.912 365.281 289.888 366.017 290.56C366.785 291.232 367.681 291.568 368.705 291.568H369.521ZM405.053 302.608C403.389 303.28 401.821 303.76 400.349 304.048C398.877 304.336 397.485 304.48 396.173 304.48C392.557 304.48 389.821 303.456 387.965 301.408C386.109 299.36 385.181 296.64 385.181 293.248V290.368C385.181 288.096 385.597 286.128 386.429 284.464C387.261 282.8 388.445 281.504 389.981 280.576C391.517 279.648 393.325 279.184 395.405 279.184C397.101 279.184 398.685 279.536 400.157 280.24C401.661 280.912 402.877 281.984 403.805 283.456C404.765 284.896 405.245 286.752 405.245 289.024C405.245 289.696 405.197 290.416 405.101 291.184C405.005 291.92 404.845 292.704 404.621 293.536H390.509C390.573 295.52 391.069 297.008 391.997 298C392.925 298.992 394.413 299.488 396.461 299.488C397.549 299.488 398.669 299.36 399.821 299.104C401.005 298.848 402.221 298.464 403.469 297.952L405.053 302.608ZM395.405 283.84C393.933 283.84 392.781 284.32 391.949 285.28C391.149 286.208 390.685 287.552 390.557 289.312H399.773C399.805 289.152 399.821 289.008 399.821 288.88C399.821 288.72 399.821 288.576 399.821 288.448C399.821 286.912 399.389 285.76 398.525 284.992C397.661 284.224 396.621 283.84 395.405 283.84ZM424.233 299.152C427.945 299.152 429.801 297.776 429.801 295.024C429.801 293.904 429.513 293.024 428.937 292.384C428.393 291.744 427.369 291.184 425.865 290.704L421.929 289.408C417.225 287.872 414.873 284.784 414.873 280.144C414.873 277.456 415.705 275.248 417.369 273.52C419.065 271.76 421.705 270.88 425.289 270.88C426.793 270.88 428.281 271.056 429.753 271.408C431.225 271.728 432.793 272.256 434.457 272.992L432.681 277.936C431.145 277.328 429.833 276.896 428.745 276.64C427.689 276.352 426.601 276.208 425.481 276.208C424.009 276.208 422.841 276.48 421.977 277.024C421.145 277.536 420.729 278.48 420.729 279.856C420.729 280.88 421.017 281.728 421.593 282.4C422.201 283.04 423.193 283.584 424.569 284.032L428.505 285.328C430.873 286.128 432.649 287.296 433.833 288.832C435.049 290.336 435.657 292.336 435.657 294.832C435.657 297.712 434.745 300.048 432.921 301.84C431.097 303.6 428.233 304.48 424.329 304.48C422.793 304.48 421.193 304.304 419.529 303.952C417.897 303.568 416.105 302.928 414.153 302.032L415.929 297.088C417.721 297.856 419.241 298.4 420.489 298.72C421.769 299.008 423.017 299.152 424.233 299.152ZM461.173 290.368V293.248C461.173 296.64 460.245 299.36 458.389 301.408C456.533 303.456 453.909 304.48 450.517 304.48C447.125 304.48 444.501 303.456 442.645 301.408C440.789 299.36 439.861 296.64 439.861 293.248V290.368C439.861 286.976 440.773 284.272 442.597 282.256C444.453 280.208 447.093 279.184 450.517 279.184C453.941 279.184 456.565 280.208 458.389 282.256C460.245 284.272 461.173 286.976 461.173 290.368ZM455.509 290.368C455.509 288.416 455.077 286.896 454.213 285.808C453.349 284.688 452.117 284.128 450.517 284.128C448.917 284.128 447.685 284.688 446.821 285.808C445.957 286.896 445.525 288.416 445.525 290.368V293.248C445.525 295.2 445.957 296.736 446.821 297.856C447.685 298.976 448.917 299.536 450.517 299.536C452.117 299.536 453.349 298.976 454.213 297.856C455.077 296.736 455.509 295.2 455.509 293.248V290.368ZM467.218 297.136V268.48H472.738V297.136C472.738 297.616 472.85 298.08 473.074 298.528C473.33 298.944 473.81 299.152 474.514 299.152H475.282V304.24H473.938C472.114 304.24 470.722 303.888 469.762 303.184C468.802 302.48 468.13 301.584 467.746 300.496C467.394 299.408 467.218 298.288 467.218 297.136ZM495.124 304V300.784C493.652 302.064 492.276 303.008 490.996 303.616C489.716 304.192 488.42 304.48 487.108 304.48C484.932 304.48 483.252 303.744 482.068 302.272C480.884 300.768 480.292 298.672 480.292 295.984V279.664H485.812V295.312C485.812 298 486.804 299.344 488.788 299.344C489.588 299.344 490.452 299.152 491.38 298.768C492.34 298.384 493.492 297.648 494.836 296.56V279.664H500.356V304H495.124ZM522.596 303.184C521.764 303.568 520.804 303.872 519.716 304.096C518.628 304.352 517.524 304.48 516.404 304.48C514.548 304.48 513.06 304.096 511.94 303.328C510.82 302.56 510.004 301.488 509.492 300.112C509.012 298.736 508.772 297.168 508.772 295.408V284.464H504.836V279.664H508.772V273.328H514.292V279.664H521.876V284.464H514.292V295.408C514.292 296.88 514.564 297.904 515.108 298.48C515.684 299.024 516.5 299.296 517.556 299.296C518.068 299.296 518.612 299.248 519.188 299.152C519.796 299.024 520.468 298.816 521.204 298.528L522.596 303.184ZM532.698 275.056H526.89V269.344H532.698V275.056ZM532.554 304H527.034V279.664H532.554V304ZM560.079 290.368V293.248C560.079 296.64 559.151 299.36 557.295 301.408C555.439 303.456 552.815 304.48 549.423 304.48C546.031 304.48 543.407 303.456 541.551 301.408C539.695 299.36 538.767 296.64 538.767 293.248V290.368C538.767 286.976 539.679 284.272 541.503 282.256C543.359 280.208 545.999 279.184 549.423 279.184C552.847 279.184 555.471 280.208 557.295 282.256C559.151 284.272 560.079 286.976 560.079 290.368ZM554.415 290.368C554.415 288.416 553.983 286.896 553.119 285.808C552.255 284.688 551.023 284.128 549.423 284.128C547.823 284.128 546.591 284.688 545.727 285.808C544.863 286.896 544.431 288.416 544.431 290.368V293.248C544.431 295.2 544.863 296.736 545.727 297.856C546.591 298.976 547.823 299.536 549.423 299.536C551.023 299.536 552.255 298.976 553.119 297.856C553.983 296.736 554.415 295.2 554.415 293.248V290.368ZM578.173 284.32C577.373 284.32 576.461 284.512 575.437 284.896C574.413 285.28 573.197 286.032 571.789 287.152V304H566.269V279.664H571.501V282.928C573.005 281.616 574.429 280.672 575.773 280.096C577.117 279.488 578.477 279.184 579.853 279.184C582.189 279.184 583.965 279.936 585.181 281.44C586.397 282.912 587.005 284.992 587.005 287.68V304H581.485V288.352C581.485 285.664 580.381 284.32 578.173 284.32ZM601.116 299.68C602.3 299.68 603.276 299.488 604.044 299.104C604.812 298.688 605.196 298.08 605.196 297.28C605.196 296.576 604.94 296.032 604.428 295.648C603.948 295.232 603.068 294.864 601.788 294.544L599.052 293.824C596.94 293.28 595.372 292.368 594.348 291.088C593.356 289.808 592.86 288.288 592.86 286.528C592.86 284.448 593.58 282.704 595.02 281.296C596.46 279.888 598.684 279.184 601.692 279.184C602.908 279.184 604.188 279.328 605.532 279.616C606.876 279.904 608.284 280.368 609.756 281.008L608.172 285.712C606.828 285.072 605.612 284.624 604.524 284.368C603.436 284.112 602.476 283.984 601.644 283.984C599.372 283.984 598.236 284.752 598.236 286.288C598.236 286.896 598.428 287.376 598.812 287.728C599.228 288.08 599.98 288.4 601.068 288.688L603.804 289.408C606.14 290.016 607.836 290.944 608.892 292.192C609.98 293.44 610.524 295.008 610.524 296.896C610.524 299.136 609.756 300.96 608.22 302.368C606.716 303.776 604.332 304.48 601.068 304.48C598.284 304.48 595.356 303.84 592.284 302.56L593.772 298C595.276 298.608 596.636 299.04 597.852 299.296C599.068 299.552 600.156 299.68 601.116 299.68Z" fill="url(#paint0_linear_937_2)"/>
</g>
<defs>
<linearGradient id="paint0_linear_937_2" x1="337" y1="257" x2="337" y2="475" gradientUnits="userSpaceOnUse">
<stop stop-color="#4E84F5"/>
<stop offset="1" stop-color="#8569F9"/>
</linearGradient>
<clipPath id="clip0_937_2">
<rect width="675" height="900" fill="white"/>
</clipPath>
</defs>
</svg>
